# xmcd
#
# Track frame offsets: 
#        182
#        30725
#        57812
#        87310
#        203220
#
# Disc length: 3347 seconds
#
# Revision: 1
# Processed by: cddbd v1.5.2PL0 Copyright (c) Steve Scherf et al.
# Submitted via: ExactAudioCopy v0.90b4
#
DISCID=3b0d1105
DTITLE=La Grande Formation - Galilée
DYEAR=1994
DGENRE=Progressive Rock
TTITLE0=Fashion From Resonance
TTITLE1=Longitude 4°2 Est, Latitude 50°5 Nord
TTITLE2=Tango Pour Oscar
TTITLE3=E Pure Si Muove
TTITLE4=Souffler La Lune
EXTD=YEAR: 1993
EXTT0=
EXTT1=
EXTT2=
EXTT3=
EXTT4=
PLAYORDER=
